<svg width="31" height="30" viewBox="0 0 31 30" fill="none" xmlns="http://www.w3.org/2000/svg">
<path fill-rule="evenodd" clip-rule="evenodd" d="M8.95391 0.09C10.5535 0.0163636 11.0635 0 15.138 0C19.2125 0 19.7225 0.0177273 21.3207 0.09C22.9189 0.162273 24.0098 0.417273 24.9644 0.786818C25.9639 1.16455 26.8707 1.755 27.6207 2.51864C28.3844 3.26727 28.9735 4.17273 29.3498 5.17364C29.7207 6.12818 29.9744 7.21909 30.048 8.81455C30.1216 10.4168 30.138 10.9268 30.138 15C30.138 19.0745 30.1203 19.5845 30.048 21.1841C29.9757 22.7795 29.7207 23.8705 29.3498 24.825C28.9734 25.826 28.3834 26.733 27.6207 27.4827C26.8707 28.2464 25.9639 28.8355 24.9644 29.2118C24.0098 29.5827 22.9189 29.8364 21.3235 29.91C19.7225 29.9836 19.2125 30 15.138 30C11.0635 30 10.5535 29.9823 8.95391 29.91C7.35846 29.8377 6.26755 29.5827 5.313 29.2118C4.31198 28.8354 3.40503 28.2453 2.65527 27.4827C1.89215 26.7336 1.30161 25.8271 0.924819 24.8264C0.555273 23.8718 0.301637 22.7809 0.228 21.1855C0.154364 19.5832 0.138 19.0732 0.138 15C0.138 10.9255 0.155728 10.4155 0.228 8.81727C0.300273 7.21909 0.555273 6.12818 0.924819 5.17364C1.30217 4.17284 1.89316 3.26634 2.65664 2.51727C3.40533 1.75432 4.31137 1.16379 5.31164 0.786818C6.26618 0.417273 7.35709 0.163636 8.95255 0.09H8.95391ZM21.1994 2.79C19.6175 2.71773 19.143 2.70273 15.138 2.70273C11.133 2.70273 10.6585 2.71773 9.07664 2.79C7.61345 2.85682 6.81982 3.10091 6.29073 3.30682C5.59118 3.57955 5.09073 3.90273 4.56573 4.42773C4.06806 4.91189 3.68506 5.50129 3.44482 6.15273C3.23891 6.68182 2.99482 7.47545 2.928 8.93864C2.85573 10.5205 2.84073 10.995 2.84073 15C2.84073 19.005 2.85573 19.4795 2.928 21.0614C2.99482 22.5245 3.23891 23.3182 3.44482 23.8473C3.68482 24.4977 4.068 25.0882 4.56573 25.5723C5.04982 26.07 5.64027 26.4532 6.29073 26.6932C6.81982 26.8991 7.61345 27.1432 9.07664 27.21C10.6585 27.2823 11.1316 27.2973 15.138 27.2973C19.1444 27.2973 19.6175 27.2823 21.1994 27.21C22.6625 27.1432 23.4562 26.8991 23.9853 26.6932C24.6848 26.4205 25.1853 26.0973 25.7103 25.5723C26.208 25.0882 26.5912 24.4977 26.8312 23.8473C27.0371 23.3182 27.2812 22.5245 27.348 21.0614C27.4203 19.4795 27.4353 19.005 27.4353 15C27.4353 10.995 27.4203 10.5205 27.348 8.93864C27.2812 7.47545 27.0371 6.68182 26.8312 6.15273C26.5585 5.45318 26.2353 4.95273 25.7103 4.42773C25.2261 3.9301 24.6367 3.54711 23.9853 3.30682C23.4562 3.10091 22.6625 2.85682 21.1994 2.79ZM13.2221 19.6241C14.2921 20.0695 15.4835 20.1296 16.5929 19.7942C17.7023 19.4587 18.6608 18.7485 19.3047 17.7849C19.9487 16.8212 20.2381 15.6639 20.1235 14.5106C20.009 13.3573 19.4976 12.2795 18.6766 11.4614C18.1533 10.9384 17.5206 10.5379 16.8239 10.2888C16.1273 10.0397 15.384 9.94822 14.6478 10.0208C13.9115 10.0935 13.2005 10.3284 12.5659 10.7088C11.9313 11.0892 11.389 11.6056 10.978 12.2207C10.5669 12.8359 10.2973 13.5345 10.1887 14.2663C10.0801 14.9981 10.135 15.7449 10.3496 16.453C10.5643 17.161 10.9332 17.8127 11.4299 18.361C11.9266 18.9093 12.5387 19.3407 13.2221 19.6241ZM9.68618 9.54818C10.4021 8.83224 11.2521 8.26432 12.1875 7.87686C13.1229 7.48939 14.1255 7.28996 15.138 7.28996C16.1505 7.28996 17.1531 7.48939 18.0885 7.87686C19.0239 8.26432 19.8739 8.83224 20.5898 9.54818C21.3058 10.2641 21.8737 11.1141 22.2611 12.0495C22.6486 12.9849 22.848 13.9875 22.848 15C22.848 16.0125 22.6486 17.0151 22.2611 17.9505C21.8737 18.8859 21.3058 19.7359 20.5898 20.4518C19.1439 21.8977 17.1828 22.71 15.138 22.71C13.0932 22.71 11.1321 21.8977 9.68618 20.4518C8.24027 19.0059 7.42797 17.0448 7.42797 15C7.42797 12.9552 8.24027 10.9941 9.68618 9.54818ZM24.558 8.43818C24.7354 8.27082 24.8774 8.06956 24.9757 7.84633C25.0739 7.62309 25.1264 7.38241 25.1299 7.13854C25.1335 6.89467 25.0881 6.65257 24.9964 6.42656C24.9047 6.20055 24.7686 5.99524 24.5961 5.82278C24.4237 5.65032 24.2184 5.51421 23.9924 5.42252C23.7663 5.33083 23.5242 5.28542 23.2804 5.28898C23.0365 5.29253 22.7958 5.34498 22.5726 5.44322C22.3493 5.54146 22.1481 5.68349 21.9807 5.86091C21.6552 6.20595 21.477 6.66426 21.484 7.13854C21.4909 7.61283 21.6824 8.06574 22.0178 8.40115C22.3532 8.73656 22.8061 8.92804 23.2804 8.93495C23.7547 8.94187 24.213 8.76367 24.558 8.43818Z" fill="#8D8D8D"/>
</svg>
