<svg width="31" height="30" viewBox="0 0 31 30" fill="none" xmlns="http://www.w3.org/2000/svg">
<path d="M30.138 3.55855C29.0348 4.1599 27.8496 4.56621 26.6037 4.74987C27.8893 3.80363 28.851 2.31435 29.3096 0.559934C28.1018 1.44244 26.7799 2.06362 25.4014 2.39648C24.4744 1.17894 23.2465 0.371933 21.9084 0.100754C20.5704 -0.170425 19.197 0.109396 18.0014 0.896774C16.8059 1.68415 15.8551 2.93503 15.2968 4.45521C14.7384 5.97539 14.6036 7.67981 14.9134 9.30386C12.466 9.1527 10.0719 8.37022 7.88629 7.00721C5.7007 5.64419 3.77251 3.73109 2.22688 1.39207C1.69838 2.5135 1.3945 3.81371 1.3945 5.19844C1.39391 6.44501 1.64346 7.67249 2.12102 8.77196C2.59857 9.87144 3.28936 10.8089 4.1321 11.5012C3.15475 11.463 2.19896 11.1381 1.34429 10.5537V10.6512C1.34419 12.3996 1.83583 14.0941 2.73579 15.4474C3.63575 16.8006 4.8886 17.7291 6.28175 18.0754C5.3751 18.3773 4.42454 18.4217 3.50187 18.2054C3.89493 19.7098 4.66059 21.0253 5.69164 21.9678C6.7227 22.9103 7.96754 23.4326 9.25189 23.4615C7.07163 25.5669 4.37902 26.709 1.60722 26.7039C1.11622 26.7041 0.625638 26.6688 0.138 26.5983C2.95154 28.8236 6.22671 30.0046 9.57163 30C20.8946 30 27.0846 18.4639 27.0846 8.45872C27.0846 8.13367 27.078 7.80537 27.0661 7.48031C28.2702 6.40922 29.3095 5.08288 30.1354 3.56342L30.138 3.55855Z" fill="#8D8D8D"/>
</svg>
