<svg width="31" height="30" viewBox="0 0 31 30" fill="none" xmlns="http://www.w3.org/2000/svg">
<path d="M19.2473 20.8259V24.3583C19.2473 25.106 18.9842 25.4799 18.4578 25.4799C18.1474 25.4799 17.8438 25.3571 17.5469 25.1116V20.0725C17.8438 19.827 18.1474 19.7042 18.4578 19.7042C18.9842 19.7042 19.2473 20.0781 19.2473 20.8259ZM26.0894 20.8426V21.6127H24.2676V20.8426C24.2676 20.0837 24.5712 19.7042 25.1785 19.7042C25.7858 19.7042 26.0894 20.0837 26.0894 20.8426ZM6.53476 17.1931H8.70075V15.6194H2.38496V17.1931H4.51047V26.7188H6.53476V17.1931ZM12.3647 26.7188H14.1663V18.4487H12.3647V24.7768C11.9599 25.2455 11.5752 25.4799 11.2109 25.4799C10.968 25.4799 10.8263 25.3627 10.7858 25.1283C10.7723 25.0949 10.7655 24.8996 10.7655 24.5424V18.4487H8.96391V24.9944C8.96391 25.5413 9.01789 25.9487 9.12585 26.2165C9.2878 26.6295 9.67916 26.8359 10.2999 26.8359C10.9477 26.8359 11.636 26.4955 12.3647 25.8147V26.7188ZM21.0489 24.2411V20.9431C21.0489 20.1283 20.9882 19.5759 20.8667 19.2857C20.6373 18.6607 20.1582 18.3482 19.4295 18.3482C18.7547 18.3482 18.1272 18.6496 17.5469 19.2522V15.6194H15.7453V26.7188H17.5469V25.9152C18.1542 26.529 18.7817 26.8359 19.4295 26.8359C20.1582 26.8359 20.6373 26.529 20.8667 25.9152C20.9882 25.6138 21.0489 25.0558 21.0489 24.2411ZM27.891 24.0737V23.856H26.0489C26.0489 24.4252 26.0354 24.7656 26.0084 24.8772C25.914 25.279 25.6441 25.4799 25.1987 25.4799C24.5779 25.4799 24.2676 25.0949 24.2676 24.3248V22.8683H27.891V21.144C27.891 20.2623 27.7089 19.615 27.3445 19.202C26.8182 18.6328 26.1029 18.3482 25.1987 18.3482C24.281 18.3482 23.5591 18.6328 23.0327 19.202C22.6549 19.615 22.4659 20.2623 22.4659 21.144V24.0402C22.4659 24.9219 22.6616 25.5692 23.053 25.9821C23.5793 26.5513 24.308 26.8359 25.2392 26.8359C26.2109 26.8359 26.9396 26.5402 27.4254 25.9487C27.6684 25.6473 27.8101 25.346 27.8505 25.0446C27.8775 24.9442 27.891 24.6205 27.891 24.0737ZM15.5833 8.78906V5.27344C15.5833 4.50335 15.2932 4.1183 14.7129 4.1183C14.1326 4.1183 13.8425 4.50335 13.8425 5.27344V8.78906C13.8425 9.57031 14.1326 9.96094 14.7129 9.96094C15.2932 9.96094 15.5833 9.57031 15.5833 8.78906ZM30.138 21.3616C30.138 23.9732 29.9626 25.9263 29.6117 27.221C29.4228 27.8795 29.0314 28.4319 28.4376 28.8783C27.8438 29.3248 27.1555 29.5815 26.3728 29.6484C23.8897 29.8828 20.1447 30 15.138 30C10.1313 30 6.38631 29.8828 3.90318 29.6484C3.12046 29.5815 2.42882 29.3248 1.82828 28.8783C1.22774 28.4319 0.839755 27.8795 0.664316 27.221C0.313439 25.971 0.138 24.0179 0.138 21.3616C0.138 18.75 0.313439 16.7969 0.664316 15.5022C0.85325 14.8438 1.24461 14.2913 1.83841 13.8449C2.4322 13.3984 3.1272 13.1362 3.92343 13.058C6.39306 12.8348 10.1313 12.7232 15.138 12.7232C20.1447 12.7232 23.8897 12.8348 26.3728 13.058C27.1555 13.1362 27.8472 13.3984 28.4477 13.8449C29.0483 14.2913 29.4362 14.8438 29.6117 15.5022C29.9626 16.7522 30.138 18.7054 30.138 21.3616ZM9.93557 0H12.0003L9.55096 6.67969V11.2165H7.52666V6.67969C7.33773 5.85379 6.92612 4.67076 6.29185 3.13058C5.79252 1.98103 5.35392 0.9375 4.97606 0H7.12181L8.55905 4.4029L9.93557 0ZM17.4254 5.57478V8.50446C17.4254 9.40848 17.2365 10.067 16.8586 10.4799C16.3458 11.0491 15.6306 11.3337 14.7129 11.3337C13.8087 11.3337 13.1002 11.0491 12.5874 10.4799C12.2095 10.0558 12.0206 9.39732 12.0206 8.50446V5.57478C12.0206 4.68192 12.2095 4.02902 12.5874 3.61607C13.1002 3.04688 13.8087 2.76228 14.7129 2.76228C15.6306 2.76228 16.3458 3.04688 16.8586 3.61607C17.2365 4.02902 17.4254 4.68192 17.4254 5.57478ZM24.2068 2.86272V11.2165H22.3647V10.2958C21.6495 10.9877 20.9545 11.3337 20.2797 11.3337C19.6589 11.3337 19.2608 11.1272 19.0854 10.7143C18.9774 10.4464 18.9234 10.0279 18.9234 9.4587V2.86272H20.7655V9.0067C20.7655 9.375 20.7723 9.57031 20.7858 9.59263C20.8263 9.83817 20.968 9.96094 21.2109 9.96094C21.5752 9.96094 21.9599 9.72098 22.3647 9.24107V2.86272H24.2068Z" fill="#8D8D8D"/>
</svg>
