<svg width="59" height="40" viewBox="0 0 59 40" fill="none" xmlns="http://www.w3.org/2000/svg">
<path d="M58.765 34.3267V5.67328C58.765 3.0308 56.4601 0.897705 53.6047 0.897705H5.40739C2.55201 0.897705 0.24707 3.0308 0.24707 5.67328V34.3267C0.24707 36.9692 2.55201 39.1023 5.40739 39.1023H53.6047C56.4601 39.1023 58.765 36.9692 58.765 34.3267ZM54.2584 5.32307C55.3936 6.3737 54.7744 7.45616 54.1552 7.99739L40.1879 19.8408L53.6047 32.7667C54.0176 33.2124 54.2928 33.9128 53.8111 34.3904C53.3639 34.8998 52.3319 34.868 51.8846 34.5496L36.8509 22.6743L29.4889 28.8826L22.1612 22.6743L7.12749 34.5496C6.68026 34.868 5.6482 34.8998 5.20097 34.3904C4.71934 33.9128 4.99456 33.2124 5.40739 32.7667L18.8242 19.8408L4.85695 7.99739C4.23771 7.45616 3.61848 6.3737 4.75375 5.32307C5.88901 4.27244 7.05869 4.78184 8.02194 5.54593L29.4889 21.5919L50.9902 5.54593C51.9534 4.78184 53.1231 4.27244 54.2584 5.32307Z" fill="#FF6422"/>
</svg>
